<svg width="151" height="128" viewBox="0 0 151 128" fill="none" xmlns="http://www.w3.org/2000/svg">
<rect width="151" height="128" fill="#000315"/>
<path fill-rule="evenodd" clip-rule="evenodd" d="M75 16C52.2975 16 34 34.0634 34 56.4754C34 69.8556 40.7769 81.5634 50.9421 91.5986L65.8512 106.986C70.9339 112.338 79.0661 112.338 84.1488 106.986L99.0578 91.5986C109.223 81.5634 116 69.8556 116 56.4754C116 34.0634 97.7025 16 75 16ZM75 31.3873C88.8926 31.3873 100.074 42.4261 100.074 56.1408C100.074 69.8556 88.8926 80.8944 75 80.8944C61.1074 80.8944 49.9256 69.8556 49.9256 56.1408C49.9256 42.4261 61.1074 31.3873 75 31.3873Z" fill="url(#paint0_linear_24_4)"/>
<defs>
<linearGradient id="paint0_linear_24_4" x1="-186.079" y1="7.97185" x2="196.136" y2="7.97185" gradientUnits="userSpaceOnUse">
<stop stop-color="#B445FF"/>
<stop offset="0.35" stop-color="#7B35FF"/>
<stop offset="0.62" stop-color="#5F55FF"/>
<stop offset="1" stop-color="#0097FF"/>
</linearGradient>
</defs>
</svg>
