<svg width="1078" height="295" viewBox="0 0 1078 295" fill="none" xmlns="http://www.w3.org/2000/svg">
<path d="M865 37H1044" stroke="url(#paint0_linear_17_21)" stroke-width="39" stroke-linecap="round" stroke-linejoin="round"/>
<path d="M957 37L957 257" stroke="url(#paint1_linear_17_21)" stroke-width="39" stroke-linecap="round" stroke-linejoin="round"/>
<path d="M315 37H466C495 37 514 58 514 88C514 119 493 139 462 139C462 139 372.407 139 315 139V262" stroke="url(#paint2_linear_17_21)" stroke-width="39" stroke-linecap="round" stroke-linejoin="round"/>
<path d="M223 37H72C43 37 24 58 24 88C24 119 45 139 76 139H172C207 139 229 162 229 196C229 230 205 257 170 257H24" stroke="url(#paint3_linear_17_21)" stroke-width="39" stroke-linecap="round" stroke-linejoin="round"/>
<path fill-rule="evenodd" clip-rule="evenodd" d="M689.5 6C622.777 6 569 59.6197 569 126.148C569 165.866 588.917 200.62 618.793 230.408L662.612 276.084C677.55 291.972 701.45 291.972 716.388 276.084L760.207 230.408C790.083 200.62 810 165.866 810 126.148C810 59.6197 756.223 6 689.5 6ZM689.5 51.6761C730.331 51.6761 763.194 84.4437 763.194 125.155C763.194 165.866 730.331 198.634 689.5 198.634C648.669 198.634 615.806 165.866 615.806 125.155C615.806 84.4437 648.669 51.6761 689.5 51.6761Z" fill="url(#paint4_linear_17_21)"/>
<defs>
<linearGradient id="paint0_linear_17_21" x1="-59" y1="3.12533e-05" x2="1069" y2="3.12533e-05" gradientUnits="userSpaceOnUse">
<stop stop-color="#B445FF"/>
<stop offset="0.35" stop-color="#7B35FF"/>
<stop offset="0.62" stop-color="#5F55FF"/>
<stop offset="1" stop-color="#0097FF"/>
</linearGradient>
<linearGradient id="paint1_linear_17_21" x1="-59" y1="-1.26274e-05" x2="1069" y2="3.6679e-05" gradientUnits="userSpaceOnUse">
<stop stop-color="#B445FF"/>
<stop offset="0.35" stop-color="#7B35FF"/>
<stop offset="0.62" stop-color="#5F55FF"/>
<stop offset="1" stop-color="#0097FF"/>
</linearGradient>
<linearGradient id="paint2_linear_17_21" x1="414.5" y1="37" x2="478" y2="241" gradientUnits="userSpaceOnUse">
<stop stop-color="#8E53FC"/>
<stop offset="0.8" stop-color="#5622F0"/>
</linearGradient>
<linearGradient id="paint3_linear_17_21" x1="5.22704e-07" y1="3.17834e-05" x2="1128" y2="3.17834e-05" gradientUnits="userSpaceOnUse">
<stop stop-color="#B445FF"/>
<stop offset="0.35" stop-color="#7B35FF"/>
<stop offset="0.62" stop-color="#5F55FF"/>
<stop offset="1" stop-color="#0097FF"/>
</linearGradient>
<linearGradient id="paint4_linear_17_21" x1="-77.8162" y1="-17.8309" x2="1045.52" y2="-17.8309" gradientUnits="userSpaceOnUse">
<stop stop-color="#B445FF"/>
<stop offset="0.326923" stop-color="#7B35FF"/>
<stop offset="0.62" stop-color="#5F55FF"/>
<stop offset="1" stop-color="#0097FF"/>
</linearGradient>
</defs>
</svg>
