<svg width="275" height="295" viewBox="0 0 275 295" fill="none" xmlns="http://www.w3.org/2000/svg">
<path fill-rule="evenodd" clip-rule="evenodd" d="M137.5 6C70.7769 6 17 59.6197 17 126.148C17 165.866 36.9174 200.62 66.7934 230.408L110.612 276.084C125.55 291.972 149.45 291.972 164.388 276.084L208.207 230.408C238.083 200.62 258 165.866 258 126.148C258 59.6197 204.223 6 137.5 6ZM137.5 51.6761C178.331 51.6761 211.194 84.4437 211.194 125.155C211.194 165.866 178.331 198.634 137.5 198.634C96.6694 198.634 63.8058 165.866 63.8058 125.155C63.8058 84.4437 96.6694 51.6761 137.5 51.6761Z" fill="url(#paint0_linear_17_33)"/>
<defs>
<linearGradient id="paint0_linear_17_33" x1="-629.816" y1="-17.8309" x2="493.523" y2="-17.8309" gradientUnits="userSpaceOnUse">
<stop stop-color="#B445FF"/>
<stop offset="0.35" stop-color="#7B35FF"/>
<stop offset="0.62" stop-color="#5F55FF"/>
<stop offset="1" stop-color="#0097FF"/>
</linearGradient>
</defs>
</svg>
